<svg xmlns="http://www.w3.org/2000/svg" width="126" height="18.109" viewBox="0 0 126 18.109">
  <g id="Group_9" data-name="Group 9" transform="translate(-262 -52.606)">
    <path id="Path_23" data-name="Path 23" d="M279.763,53.04V70.281h-3.488L265.018,56.952h-.1V70.281H262V53.04h3.587L276.72,66.248h.1V53.04Z" fill="#eef2e2"/>
    <path id="Path_24" data-name="Path 24" d="M283.722,70.281V53.04h3.068V70.281Z" fill="#eef2e2"/>
    <path id="Path_25" data-name="Path 25" d="M299.7,55.19c-3.538,0-6.507,2.052-6.507,6.471s2.969,6.471,6.507,6.471c3.736,0,5.789-1.811,5.912-4.467h3.538c-.123,4.322-3.835,7.05-9.45,7.05-5.369,0-9.847-2.97-9.847-9.054s4.478-9.055,9.847-9.055c5.615,0,9.153,2.728,9.4,6.688h-3.513C305.393,57,303.44,55.19,299.7,55.19Z" fill="#eef2e2"/>
    <path id="Path_26" data-name="Path 26" d="M331.667,61.661c0,6.084-4.477,9.054-10.168,9.054s-10.168-2.97-10.168-9.054,4.478-9.055,10.168-9.055S331.667,55.576,331.667,61.661Zm-3.339,0c0-4.419-2.969-6.471-6.829-6.471s-6.828,2.052-6.828,6.471,2.969,6.471,6.828,6.471S328.328,66.079,328.328,61.661Z" fill="#eef2e2"/>
    <path id="Path_27" data-name="Path 27" d="M334.735,70.281V53.04H337.8V67.673h12.766v2.608Z" fill="#eef2e2"/>
    <path id="Path_28" data-name="Path 28" d="M361.157,53.04,354.5,70.281h-2.746l6.655-17.241Z" fill="#eef2e2"/>
    <path id="Path_29" data-name="Path 29" d="M360.885,64.582V62.168h5.207v2.414Z" fill="#eef2e2"/>
    <path id="Path_30" data-name="Path 30" d="M378.747,55.069c-2.746,0-4.7.7-4.7,2.487,0,1.448,1.064,1.883,2.672,2.076l6.334.749c2.647.314,4.948,1.376,4.948,4.877,0,3.984-3.687,5.457-8.981,5.457-5,0-8.906-1.424-9.005-6.253H373.3c.123,3.042,2.646,3.79,5.764,3.79,3.315,0,5.517-.941,5.492-2.8-.025-1.763-1.212-2.222-2.944-2.439l-6.086-.749c-2.7-.338-4.874-1.4-4.874-4.515,0-3.622,3.439-5.143,8.115-5.143,4.626,0,8.535,1.4,8.634,5.674h-3.291C384.017,55.7,381.592,55.069,378.747,55.069Z" fill="#eef2e2"/>
  </g>
</svg>
